<svg xmlns="http://www.w3.org/2000/svg" xmlns:xlink="http://www.w3.org/1999/xlink" width="25.824" height="25.789" viewBox="0 0 25.824 25.789">
  <defs>
    <linearGradient id="linear-gradient" x1="0.5" x2="0.5" y2="1" gradientUnits="objectBoundingBox">
      <stop offset="0" stop-color="#60c4b9"/>
      <stop offset="1" stop-color="#4ee2de"/>
    </linearGradient>
  </defs>
  <g id="Group_1131" data-name="Group 1131" transform="translate(-1233.263 561.611)">
    <path id="Path_974" data-name="Path 974" d="M1236.576-542.954c0-.671-.006-1.343,0-2.014a.48.48,0,0,0-.19-.411,8.791,8.791,0,0,1-2.073-2.586,8.86,8.86,0,0,1-.939-2.9,9.062,9.062,0,0,1,.042-3.14,8.272,8.272,0,0,1,1.689-3.56,10.419,10.419,0,0,1,4.069-3.053,12.227,12.227,0,0,1,5.693-.971,9.217,9.217,0,0,1,2.433.522,10.857,10.857,0,0,1,3.231,1.774,10.053,10.053,0,0,1,2.225,2.442,8.486,8.486,0,0,1,1.1,2.494,7.788,7.788,0,0,1,.234,2.313,9.635,9.635,0,0,1-.3,2,9.065,9.065,0,0,1-1.793,3.5,9.215,9.215,0,0,1-2.976,2.373,10.166,10.166,0,0,1-3.627,1.057,9.858,9.858,0,0,1-1.22.079,22.479,22.479,0,0,1-2.727-.2.363.363,0,0,0-.246.041q-2.2,1.236-4.4,2.467c-.205.115-.234.1-.235-.135Q1236.575-541.906,1236.576-542.954Zm2.093-8.195a1.193,1.193,0,0,0,1.245-1.165,1.191,1.191,0,0,0-1.189-1.187,1.182,1.182,0,0,0-1.249,1.155A1.184,1.184,0,0,0,1238.67-551.148Zm8.8-1.18a1.179,1.179,0,0,0,1.2,1.182,1.186,1.186,0,0,0,1.221-1.184,1.186,1.186,0,0,0-1.216-1.173A1.174,1.174,0,0,0,1247.467-552.328Zm-2.576.012a1.173,1.173,0,0,0-1.193-1.186,1.184,1.184,0,0,0-1.227,1.177,1.19,1.19,0,0,0,1.209,1.18A1.179,1.179,0,0,0,1244.891-552.316Z" transform="translate(0 0)" fill="url(#linear-gradient)"/>
    <path id="Path_975" data-name="Path 975" d="M1480.992-315.863q0,1.047,0,2.095c0,.057.025.133-.028.166s-.119-.028-.172-.06q-2.166-1.289-4.33-2.583a.526.526,0,0,0-.372-.056,11.518,11.518,0,0,1-1.748.136,11.76,11.76,0,0,1-2.288-.22,9.877,9.877,0,0,1-3.374-1.353,12.128,12.128,0,0,1-1.739-1.353c-.036-.033-.106-.064-.074-.126s.1-.032.148-.032l2.482,0a14.961,14.961,0,0,0,4.428-.652,11.747,11.747,0,0,0,4.726-2.7,9.887,9.887,0,0,0,2.591-4.06,9.977,9.977,0,0,0,.51-2.665,21.7,21.7,0,0,0,0-2.414c0-.077-.046-.187.029-.225s.131.069.189.117a9.021,9.021,0,0,1,2.059,2.414,7.92,7.92,0,0,1,1.124,3.981,8.135,8.135,0,0,1-1.988,5.4,9.33,9.33,0,0,1-1.974,1.79.409.409,0,0,0-.2.392C1481-317.206,1480.992-316.534,1480.992-315.863Z" transform="translate(-226.067 -222.233)" fill="url(#linear-gradient)"/>
  </g>
</svg>
