<svg xmlns="http://www.w3.org/2000/svg" xmlns:xlink="http://www.w3.org/1999/xlink" width="19.366" height="19.304" viewBox="0 0 19.366 19.304">
  <defs>
    <linearGradient id="linear-gradient" x1="0.5" x2="0.5" y2="1" gradientUnits="objectBoundingBox">
      <stop offset="0" stop-color="#60c4b9"/>
      <stop offset="1" stop-color="#4ee2de"/>
    </linearGradient>
  </defs>
  <g id="Group_1087" data-name="Group 1087" transform="translate(-1417.546 367.49)">
    <path id="Path_985" data-name="Path 985" d="M1545.487-213.381v8.693c0,.695-.2.926-.814.93q-.964.006-1.927,0c-.633,0-.849-.244-.849-.937q0-8.71,0-17.419c0-.672.22-.923.825-.928q.993-.009,1.986,0c.561,0,.779.252.779.87Q1545.487-217.776,1545.487-213.381Z" transform="translate(-119.092 -144.444)" fill="url(#linear-gradient)"/>
    <path id="Path_986" data-name="Path 986" d="M1763.736-213.413v-8.629c0-.75.2-.978.865-.98.623,0,1.246,0,1.869,0,.658,0,.863.228.863.948q0,8.694,0,17.389c0,.708-.205.942-.836.948-.652.006-1.3,0-1.957,0-.589,0-.8-.249-.8-.916Q1763.735-209.033,1763.736-213.413Z" transform="translate(-330.422 -144.464)" fill="url(#linear-gradient)"/>
    <path id="Path_987" data-name="Path 987" d="M1430.894-133.744q0-2.674,0-5.348c0-.651.224-.872.881-.873s1.286,0,1.929,0c.549,0,.8.23.8.775.013,1.831.013,3.662.015,5.493q0,2.571,0,5.143a3.046,3.046,0,0,1-.024.437c-.053.354-.21.54-.564.566a18.108,18.108,0,0,1-2.451,0c-.412-.026-.584-.287-.585-.763q0-2.484,0-4.968Z" transform="translate(-13.348 -220.679)" fill="url(#linear-gradient)"/>
    <path id="Path_988" data-name="Path 988" d="M1656.37-130.1q0,2.643,0,5.285c0,.611-.211.828-.823.833q-.978.009-1.956,0c-.587-.006-.815-.235-.815-.816q0-5.314,0-10.629c0-.549.231-.774.786-.777.672,0,1.343,0,2.015,0,.59,0,.793.207.794.789Q1656.372-132.754,1656.37-130.1Z" transform="translate(-224.717 -224.224)" fill="url(#linear-gradient)"/>
  </g>
</svg>
