<svg xmlns="http://www.w3.org/2000/svg" width="33.772" height="20.819" viewBox="0 0 33.772 20.819">
  <g id="Group_1426" data-name="Group 1426" transform="translate(0 0)">
    <path id="Path_1188" data-name="Path 1188" d="M3554.566,4366.74c-4.924,0-9.849-.01-14.772.01a2.425,2.425,0,0,1-1.885-.985,1.28,1.28,0,0,1-.251-.88q.005-6,0-12.006,0-2.232,0-4.463c0-.583.246-.741.759-.455.805.45,1.548,1,2.313,1.513q1.348.9,2.692,1.812c1.277.867,2.547,1.742,3.826,2.606q.787.532,1.6,1.029c.256.158.262.311.073.521-.592.66-1.179,1.324-1.769,1.986q-1.551,1.743-3.1,3.485-.736.825-1.476,1.648c-.061.069-.127.135-.181.209s-.09.173-.013.252.157.011.216-.035c.4-.313.8-.625,1.185-.95q1.627-1.359,3.247-2.729c1.055-.894,2.1-1.792,3.159-2.687.105-.089.235-.151.332-.248a.35.35,0,0,1,.494-.031c.438.277.9.516,1.317.825a3.843,3.843,0,0,0,3.277.663,6.033,6.033,0,0,0,1.786-.965c.3-.186.605-.378.9-.581.18-.125.3-.027.429.078q.968.809,1.934,1.618c.988.83,1.956,1.683,2.959,2.495.966.782,1.9,1.6,2.849,2.406a1.267,1.267,0,0,0,.135.107c.07.044.15.082.22.011s.031-.16-.018-.22c-.186-.234-.375-.468-.573-.691q-2.1-2.361-4.2-4.72c-.581-.652-1.159-1.308-1.744-1.957-.17-.189-.169-.3.063-.455q2.189-1.452,4.359-2.933c1.7-1.163,3.391-2.344,5.089-3.512a9.746,9.746,0,0,1,.877-.552c.493-.269.739-.121.74.438q0,4.031,0,8.062c0,2.768-.043,5.536.023,8.3a2.157,2.157,0,0,1-1.987,2c-4.958-.045-9.918-.021-14.877-.021Z" transform="translate(-3537.658 -4345.947)" fill="#686868"/>
    <path id="Path_1189" data-name="Path 1189" d="M3560.518,4320.734h15.463l.138,0c.369-.008.75,0,.892.424.135.4-.115.688-.4.916a13.135,13.135,0,0,1-1.819,1.057c-1.447.811-2.93,1.555-4.368,2.383-.907.522-1.851.981-2.771,1.48-1.458.791-2.9,1.6-4.366,2.385a5.75,5.75,0,0,1-2.631.957,4.429,4.429,0,0,1-2.148-.531c-1.187-.614-2.338-1.291-3.522-1.911-1.836-.961-3.646-1.972-5.462-2.971-1.322-.727-2.639-1.463-3.982-2.151-.348-.178-.683-.382-1.018-.585a1.105,1.105,0,0,1-.283-.251.84.84,0,0,1-.2-.864c.125-.305.427-.328.706-.329q3.252-.01,6.5-.009,4.635,0,9.27,0Z" transform="translate(-3543.548 -4320.731)" fill="#686868"/>
  </g>
</svg>
