<svg xmlns="http://www.w3.org/2000/svg" width="33.646" height="33.646" viewBox="0 0 33.646 33.646">
  <path id="Exclusion_1" data-name="Exclusion 1" d="M25.646,33.646H8a8.009,8.009,0,0,1-8-8V8A8.009,8.009,0,0,1,8,0H25.646a8.009,8.009,0,0,1,8,8V25.646A8.009,8.009,0,0,1,25.646,33.646ZM11.771,5.161a6.76,6.76,0,0,0-1.923.251,6.4,6.4,0,0,0-3.2,2.1A6.472,6.472,0,0,0,5.159,11.76c.013,2.82.009,5.685.005,8.456v.094q0,.892,0,1.784A6.607,6.607,0,0,0,5.4,23.938a6.51,6.51,0,0,0,6.27,4.738h.058c.6,0,1.238-.006,2.013-.006l1.565,0h.017l1.582,0h2.958c.864,0,1.569,0,2.218,0h.025a6.6,6.6,0,0,0,1.855-.243A6.509,6.509,0,0,0,28.678,22.1c-.011-2.769-.008-5.58,0-8.3v-.09q0-.992,0-1.984a6.566,6.566,0,0,0-.235-1.823,6.514,6.514,0,0,0-6.315-4.748H22.1c-1.395,0-2.9.007-4.616.007-1.732,0-3.486,0-5.182,0h-.531Zm5.136,21.381c-1.893,0-3.643,0-5.351-.008a4.124,4.124,0,0,1-3-1.283A4.131,4.131,0,0,1,7.3,22.261c-.011-4.193-.01-7.6,0-10.72A4.106,4.106,0,0,1,8.611,8.536,4.158,4.158,0,0,1,11.589,7.3c1.963,0,3.751-.007,5.466-.007,1.908,0,3.62,0,5.235.01A4.114,4.114,0,0,1,25.31,8.621,4.176,4.176,0,0,1,26.536,11.6c.006,1.26.005,2.539,0,3.776v.028q0,.763,0,1.527,0,.79,0,1.58c0,1.235,0,2.512-.007,3.77a4.343,4.343,0,0,1-4.276,4.25C20.321,26.539,18.571,26.541,16.907,26.541Zm.008-15.7a6.075,6.075,0,1,0,0,12.151h.006a6.075,6.075,0,1,0,0-12.151Zm6.32-1.771h-.009a1.555,1.555,0,0,0,0,3.11h.013a1.544,1.544,0,0,0,1.081-2.645A1.543,1.543,0,0,0,23.236,9.072ZM16.916,20.843H16.9a3.926,3.926,0,0,1,.018-7.852h.012a3.925,3.925,0,0,1-.017,7.851Z" fill="#686868"/>
</svg>
