<svg xmlns="http://www.w3.org/2000/svg" width="262.873" height="154.048" viewBox="0 0 262.873 154.048"><defs><style>.a{fill:#252f3e;}.b{fill:#23dac9;}.c{fill:#f1b03f;}</style></defs><path class="a" d="M119.887,57.178a7.317,7.317,0,0,1-7.258,7.258,7.394,7.394,0,0,1-7.258-7.258,7.317,7.317,0,0,1,7.258-7.258A7.243,7.243,0,0,1,119.887,57.178Z" transform="translate(-45.196 -21.412)"/><path class="a" d="M77.018,68.68V80.964H64.289v24.454c0,3.461,1.005,6.031,2.793,7.59,2.119,1.787,5.471,2.793,9.937,2.793v12.284c-7.59,0-13.62-1.9-17.978-5.808-4.58-4.02-7.036-9.823-7.036-16.858V80.964H46.42V68.68h5.585V49.92H64.289V68.68Z" transform="translate(-19.911 -21.412)"/><path class="a" d="M107.33,142.168V82.77h12.284v59.4Z" transform="translate(-46.036 -35.502)"/><path class="a" d="M181.2,88.578c4.58,4.02,7.036,9.828,7.036,16.858V119.5c0,7.036-2.456,12.952-7.036,16.858-4.352,3.906-10.5,5.808-17.978,5.808a31.579,31.579,0,0,1-12.729-2.347v21.216H138.21V82.77h12.284v2.456a29.805,29.805,0,0,1,12.729-2.456C170.7,82.77,176.844,84.78,181.2,88.578Zm-27.914,9.263c-1.9,1.673-2.793,4.129-2.793,7.59V119.5c0,3.575.891,6.031,2.793,7.7,2.01,1.787,5.471,2.678,9.937,2.678,4.352,0,7.818-.891,9.937-2.678,1.787-1.673,2.793-4.129,2.793-7.7V105.43c0-3.461-1.005-5.916-2.793-7.59-2.119-1.787-5.585-2.793-9.937-2.793C158.757,95.054,155.3,96.059,153.287,97.841Z" transform="translate(-59.281 -35.502)"/><path class="a" d="M256.383,82.77c7.59,0,13.62,2.01,17.978,5.808,4.58,4.02,7.036,9.828,7.036,16.858v36.732H269.113v-2.456a29.807,29.807,0,0,1-12.729,2.456h-2.347c-6.59,0-11.833-1.451-15.745-4.243a15.352,15.352,0,0,1-5.134-5.916,17.74,17.74,0,0,1,0-15.522,15.36,15.36,0,0,1,5.134-5.916c3.906-2.793,9.154-4.243,15.745-4.243h15.071v-.891c0-3.461-1.005-5.916-2.793-7.59-2.119-1.787-5.471-2.793-9.937-2.793h-.114c-4.129,0-7.367.891-9.491,2.456-1.788,1.342-2.792,3.352-3.124,6.253l-12.17-1.342a20.327,20.327,0,0,1,7.927-14.74c4.243-3.238,9.937-4.911,16.858-4.911Zm-2.347,35.841c-3.906,0-6.921.668-8.595,1.9a4.145,4.145,0,0,0-1.788,3.8,3.925,3.925,0,0,0,1.788,3.683c1.673,1.228,4.688,1.9,8.595,1.9h2.347c4.466,0,7.818-1.005,9.937-2.793,1.787-1.565,2.793-4.129,2.793-7.59v-.891Z" transform="translate(-99.24 -35.502)"/><path class="a" d="M376.306,138.37c0,7.036-2.456,12.838-7.036,16.858-4.352,3.906-10.5,5.808-17.978,5.808h-1.228c-15.631,0-21.324-8.263-23.334-13.289l11.387-4.58a7.574,7.574,0,0,0,3.575,3.906,17.651,17.651,0,0,0,8.372,1.673h1.228c4.352,0,7.818-1.005,9.937-2.793a8.76,8.76,0,0,0,2.678-6.139,31.393,31.393,0,0,1-12.615,2.347c-7.589,0-13.62-1.9-17.977-5.808-4.58-3.906-7.036-9.822-7.036-16.858V82.77h12.284V119.5c0,3.575.891,6.031,2.792,7.7,2.01,1.787,5.471,2.678,9.937,2.678,4.352,0,7.818-.891,9.937-2.678,1.788-1.673,2.793-4.129,2.793-7.7V82.77h12.284Z" transform="translate(-139.949 -35.502)"/><path class="b" d="M377.17,216.343v12.432a55.086,55.086,0,0,0,47.479-54.555H412.366A42.81,42.81,0,0,1,377.17,216.343Z" transform="translate(-161.776 -74.727)"/><path class="c" d="M47.479,12.432V0A55.086,55.086,0,0,0,0,54.555H12.284A42.806,42.806,0,0,1,47.479,12.432Z" transform="translate(0 0)"/></svg>