<svg xmlns="http://www.w3.org/2000/svg" xmlns:xlink="http://www.w3.org/1999/xlink" width="26.293" height="25.628" viewBox="0 0 26.293 25.628">
  <defs>
    <linearGradient id="linear-gradient" x1="0.5" x2="0.5" y2="1" gradientUnits="objectBoundingBox">
      <stop offset="0" stop-color="#60c4b9"/>
      <stop offset="1" stop-color="#4ee2de"/>
    </linearGradient>
  </defs>
  <g id="Group_1405" data-name="Group 1405" transform="translate(-3549.825 -5286.963)">
    <path id="Path_1183" data-name="Path 1183" d="M3555.678,5289.887c1.453.756,2.882,1.563,4.367,2.25a2.058,2.058,0,0,1,1.3,2.184c-.051,3,.007,5.994-.033,8.991-.011.819.271,1.1,1.068,1.046.753-.052,1.512-.031,2.268-.009.687.02.961-.31.957-.966-.009-1.289.021-2.578-.008-3.865-.013-.6.153-.873.808-.827,2,.139,1.941-.45,1.939,1.944,0,1.541.01,3.081-.007,4.622-.015,1.38-.456,1.814-1.812,1.82-1.456.006-2.913.023-4.369-.006-.61-.013-.86.19-.843.819.032,1.176.018,2.353,0,3.529-.013,1.145-.478,1.446-1.473.933-2.937-1.514-5.856-3.065-8.8-4.555a2.05,2.05,0,0,1-1.216-2.082c.024-5.63.009-11.26.013-16.89,0-1.432.427-1.857,1.852-1.858q7.395,0,14.789,0c1.356,0,1.839.458,1.857,1.8.014,1.092-.03,2.184-.028,3.276,0,.514-.174.758-.734.753-2.379-.02-1.927.157-1.969-1.883-.023-1.113-.094-1.2-1.195-1.207q-3.992-.007-7.983,0c-.239,0-.478.03-.717.046Z" transform="translate(0 0)" fill="url(#linear-gradient)"/>
    <path id="Path_1184" data-name="Path 1184" d="M3727.042,5335.088h-1.809c-1.595,0-3.189.01-4.784-.006a1.469,1.469,0,1,1,.012-2.917c1.93-.017,3.861,0,5.791-.009.267,0,.535-.026,1.047-.054-.636-.609-1.123-1.056-1.589-1.525-.713-.718-.782-1.477-.212-2.07a1.368,1.368,0,0,1,2.069.13q1.975,1.942,3.914,3.918a1.315,1.315,0,0,1,.04,2.124q-1.951,2.021-3.967,3.98a1.306,1.306,0,0,1-2.061.09,1.367,1.367,0,0,1,.159-2.018c.479-.494,1-.947,1.5-1.418Z" transform="translate(-155.922 -37.95)" fill="url(#linear-gradient)"/>
  </g>
</svg>
