<svg xmlns="http://www.w3.org/2000/svg" width="139.537" height="81.771" viewBox="0 0 139.537 81.771"><defs><style>.a{fill:#fff;}.b{fill:#23dac9;}.c{fill:#f1b03f;}</style></defs><path class="a" d="M113.076,53.773a3.884,3.884,0,0,1-3.853,3.853,3.925,3.925,0,0,1-3.853-3.853,3.884,3.884,0,0,1,3.853-3.853A3.845,3.845,0,0,1,113.076,53.773Z" transform="translate(-73.428 -34.787)"/><path class="a" d="M62.662,59.878V66.4H55.905v12.98a5.137,5.137,0,0,0,1.482,4.029,8.111,8.111,0,0,0,5.275,1.482V91.41c-4.029,0-7.23-1.006-9.543-3.083a11.477,11.477,0,0,1-3.735-8.949V66.4H46.42v-6.52h2.965V49.92h6.52v9.958Z" transform="translate(-32.348 -34.787)"/><path class="a" d="M107.33,114.3V82.77h6.52V114.3Z" transform="translate(-74.794 -57.679)"/><path class="a" d="M161.03,85.853a11.482,11.482,0,0,1,3.735,8.949v7.466a11.389,11.389,0,0,1-3.735,8.949c-2.31,2.074-5.572,3.083-9.543,3.083a16.763,16.763,0,0,1-6.757-1.246v11.262h-6.52V82.77h6.52v1.3a15.821,15.821,0,0,1,6.757-1.3C155.459,82.77,158.717,83.837,161.03,85.853ZM146.213,90.77A5.027,5.027,0,0,0,144.73,94.8v7.466a5.072,5.072,0,0,0,1.482,4.089c1.067.949,2.9,1.422,5.275,1.422a8.236,8.236,0,0,0,5.275-1.422,5.28,5.28,0,0,0,1.482-4.089V94.8a5.227,5.227,0,0,0-1.482-4.029,8.227,8.227,0,0,0-5.275-1.482A8.036,8.036,0,0,0,146.213,90.77Z" transform="translate(-96.313 -57.679)"/><path class="a" d="M244.647,82.77c4.029,0,7.23,1.067,9.543,3.083a11.482,11.482,0,0,1,3.735,8.949v19.5H251.4V113a15.822,15.822,0,0,1-6.757,1.3H243.4a14.106,14.106,0,0,1-8.357-2.252,8.149,8.149,0,0,1-2.725-3.141,9.417,9.417,0,0,1,0-8.239,8.153,8.153,0,0,1,2.725-3.14,14.1,14.1,0,0,1,8.357-2.252h8V94.8a5.227,5.227,0,0,0-1.482-4.029,8.111,8.111,0,0,0-5.275-1.482h-.061a8.52,8.52,0,0,0-5.038,1.3,4.5,4.5,0,0,0-1.658,3.319l-6.46-.712a10.79,10.79,0,0,1,4.208-7.824,14.457,14.457,0,0,1,8.949-2.607ZM243.4,101.795a8.117,8.117,0,0,0-4.562,1.006,2.2,2.2,0,0,0-.949,2.016,2.084,2.084,0,0,0,.949,1.955,8.117,8.117,0,0,0,4.562,1.006h1.246a8.11,8.11,0,0,0,5.275-1.482,5.141,5.141,0,0,0,1.482-4.029v-.473Z" transform="translate(-161.233 -57.679)"/><path class="a" d="M352.835,112.283a11.478,11.478,0,0,1-3.735,8.949c-2.31,2.073-5.572,3.083-9.543,3.083h-.652c-8.3,0-11.319-4.386-12.386-7.054l6.045-2.431a4.021,4.021,0,0,0,1.9,2.073,9.37,9.37,0,0,0,4.444.888h.652a8.227,8.227,0,0,0,5.275-1.482,4.65,4.65,0,0,0,1.422-3.259,16.664,16.664,0,0,1-6.7,1.246c-4.029,0-7.23-1.006-9.543-3.083a11.389,11.389,0,0,1-3.735-8.949V82.77H332.8v19.5a5.072,5.072,0,0,0,1.482,4.089c1.067.949,2.9,1.422,5.275,1.422a8.236,8.236,0,0,0,5.275-1.422,5.28,5.28,0,0,0,1.482-4.089V82.77h6.52Z" transform="translate(-227.372 -57.679)"/><path class="b" d="M377.17,196.579v6.6a29.24,29.24,0,0,0,25.2-28.959h-6.52A22.724,22.724,0,0,1,377.17,196.579Z" transform="translate(-262.836 -121.407)"/><path class="c" d="M25.2,6.6V0A29.24,29.24,0,0,0,0,28.959H6.52A22.722,22.722,0,0,1,25.2,6.6Z" transform="translate(0 0)"/></svg>