<svg id="Group_1427" data-name="Group 1427" xmlns="http://www.w3.org/2000/svg" width="30.458" height="30.458" viewBox="0 0 30.458 30.458">
  <path id="Path_1190" data-name="Path 1190" d="M6.744,0a1.255,1.255,0,0,1,.622.516c.329.469.544,1,.824,1.5.629,1.113,1.247,2.233,1.883,3.343.187.327.419.628.63.942a3.57,3.57,0,0,1,.253.463A1.129,1.129,0,0,1,10.831,8a6.857,6.857,0,0,1-1.09,1.1c-.632.543-1.309,1.034-1.91,1.613a5.579,5.579,0,0,0-.379.411,1.016,1.016,0,0,0-.18,1.1,5.173,5.173,0,0,0,.364.737,36.192,36.192,0,0,0,2.2,3.473,21.224,21.224,0,0,0,6.359,5.62c.585.342,1.16.7,1.763,1.015a1.189,1.189,0,0,0,1.518-.191,16.316,16.316,0,0,0,1.246-1.4,14.3,14.3,0,0,1,1.432-1.612c.066-.059.136-.113.2-.17a1.21,1.21,0,0,1,1.509-.116,4.026,4.026,0,0,1,.411.251,26.461,26.461,0,0,0,2.756,1.651c.844.475,1.692.941,2.551,1.387a3.251,3.251,0,0,1,.33.2,1.262,1.262,0,0,1,.541.64v.777a17.322,17.322,0,0,1-.394,1.866,3.7,3.7,0,0,1-1.437,2.1c-.34.247-.693.471-1.055.684a10.22,10.22,0,0,1-2.44,1.068,10.512,10.512,0,0,1-1.355.255H22.5a.293.293,0,0,0-.059-.017,10.458,10.458,0,0,1-2.317-.494c-.934-.294-1.841-.662-2.76-1A19.869,19.869,0,0,1,13.2,26.89,30.82,30.82,0,0,1,9.611,24.1a38.819,38.819,0,0,1-5.049-5.428,20.821,20.821,0,0,1-2.134-3.4,31.921,31.921,0,0,1-1.214-2.957A25.208,25.208,0,0,1,.226,9.317,13.628,13.628,0,0,1,0,7.956V6.682c.057-.372.1-.746.192-1.113A11.2,11.2,0,0,1,1.8,2.113,3.954,3.954,0,0,1,4.328.328C4.872.2,5.415.082,5.967,0Z" fill="#686868"/>
</svg>
